# This file uses centimeters as units for non-parametric coordinates.

mtllib mesh_8.mtl
g default
v 10.986383 -6.342988 0.000000
v 10.986384 6.342992 0.000000
v 0.000002 0.000002 0.000000
v 7.324253 0.000003 10.358060
vt 0.250000 0.375000
vt 0.500000 0.000000
vt 0.750000 0.375000
vt 0.000000 0.000000
vt 0.500000 0.750000
vt 1.000000 0.000000
vt 0.500000 0.000000
vt 0.250000 0.375000
vt 0.250000 0.375000
vt 0.750000 0.375000
vt 0.750000 0.375000
vt 0.500000 0.000000
vn -0.000000 0.000000 -1.000000
vn -0.000000 0.000000 -1.000000
vn -0.000000 0.000000 -1.000000
vn -0.471405 0.816497 0.333333
vn -0.471405 0.816497 0.333333
vn -0.471405 0.816497 0.333333
vn -0.471405 -0.816497 0.333333
vn -0.471405 -0.816497 0.333333
vn -0.471405 -0.816497 0.333333
vn 0.942809 -0.000000 0.333334
vn 0.942809 -0.000000 0.333334
vn 0.942809 -0.000000 0.333334
s off
g mesh_7_polySurface1 group1
usemtl initialShadingGroup
f 3/1/1 2/2/2 1/3/3
f 3/4/4 4/7/5 2/8/6
f 4/9/7 3/10/8 1/5/9
f 2/11/10 4/12/11 1/6/12
