# This file uses centimeters as units for non-parametric coordinates.

mtllib mesh_15.mtl
g default
v 0.000000 0.000000 10.358061
v 3.662126 6.342990 10.358061
v 0.000001 0.000002 0.000000
v -3.662126 6.342988 10.358061
v 0.000002 12.685978 0.000000
vt 0.250000 0.375000
vt 0.500000 0.000000
vt 0.750000 0.375000
vt 0.500000 0.750000
vt 1.000000 0.000000
vt 0.250000 0.375000
vt 0.500000 0.000000
vt 0.750000 0.375000
vt 0.000000 0.000000
vt 1.000000 0.000000
vt 0.250000 0.375000
vt 0.750000 0.375000
vt 0.750000 0.375000
vt 0.500000 0.000000
vt 0.500000 0.000000
vt 0.250000 0.375000
vt 0.750000 0.375000
vt 0.500000 0.000000
vn 0.866025 -0.500000 0.000000
vn 0.866025 -0.500000 0.000000
vn 0.866025 -0.500000 0.000000
vn -0.866025 -0.500000 0.000000
vn -0.866025 -0.500000 0.000000
vn -0.866025 -0.500000 0.000000
vn 0.000000 0.000000 1.000000
vn 0.000000 0.000000 1.000000
vn 0.000000 0.000000 1.000000
vn 0.942809 0.000000 -0.333333
vn 0.942809 0.000000 -0.333333
vn 0.942809 0.000000 -0.333333
vn -0.942809 0.000000 -0.333333
vn -0.942809 0.000000 -0.333333
vn -0.942809 0.000000 -0.333333
vn 0.000000 0.852803 0.522233
vn 0.000000 0.852803 0.522233
vn 0.000000 0.852803 0.522233
s off
g polySurface1 group1
usemtl initialShadingGroup
f 3/1/1 2/2/2 1/3/3
f 4/11/4 3/12/5 1/4/6
f 2/13/7 4/14/8 1/5/9
f 3/6/10 5/7/11 2/8/12
f 3/9/13 4/15/14 5/16/15
f 5/17/16 4/18/17 2/10/18
