# This file uses centimeters as units for non-parametric coordinates.

mtllib mesh_13.mtl
g default
v -0.000000 -0.000000 10.358061
v -7.324251 -0.000000 10.358061
v 0.000001 0.000002 -0.000000
v -3.662124 -6.342987 10.358061
v -10.986380 -6.342986 -0.000000
vt 0.500000 0.000000
vt 1.000000 0.000000
vt 0.250000 0.375000
vt 0.750000 0.375000
vt 0.500000 0.750000
vt 0.250000 0.375000
vt 0.500000 0.000000
vt 0.750000 0.375000
vt 0.000000 0.000000
vt 1.000000 0.000000
vn 0.000000 1.000000 0.000000
vn 0.000000 1.000000 0.000000
vn 0.000000 1.000000 0.000000
vn 0.866025 -0.500000 -0.000000
vn 0.866025 -0.500000 -0.000000
vn 0.866025 -0.500000 -0.000000
vn -0.000000 0.000000 1.000000
vn -0.000000 0.000000 1.000000
vn -0.000000 0.000000 1.000000
vn -0.471404 0.816497 -0.333333
vn -0.471404 0.816497 -0.333333
vn -0.471404 0.816497 -0.333333
vn 0.471404 -0.816497 -0.333333
vn 0.471404 -0.816497 -0.333333
vn 0.471404 -0.816497 -0.333333
vn -0.738549 -0.426402 0.522233
vn -0.738549 -0.426402 0.522233
vn -0.738549 -0.426402 0.522233
s off
g pSolid9
usemtl initialShadingGroup
f 3/3/1 2/1/2 1/4/3
f 4/3/4 3/4/5 1/5/6
f 2/4/7 4/1/8 1/2/9
f 3/6/10 5/7/11 2/8/12
f 3/9/13 4/7/14 5/6/15
f 5/8/16 4/7/17 2/10/18
