# This file uses centimeters as units for non-parametric coordinates.

mtllib mesh_15.mtl
g default
v -10.986382 6.342990 20.716120
v 0.000003 12.685976 20.716120
v 0.000000 -0.000000 20.716120
v -3.662124 6.342987 10.358060
vt 0.000000 0.000000
vt 0.500000 0.000000
vt 1.000000 0.000000
vt 0.250000 0.375000
vt 0.750000 0.375000
vt 0.500000 0.750000
vn -0.000000 -0.000000 1.000000
vn -0.000000 -0.000000 1.000000
vn -0.000000 -0.000000 1.000000
vn 0.942809 -0.000000 -0.333333
vn 0.942809 -0.000000 -0.333333
vn 0.942809 -0.000000 -0.333333
vn -0.471404 -0.816497 -0.333333
vn -0.471404 -0.816497 -0.333333
vn -0.471404 -0.816497 -0.333333
vn -0.471404 0.816497 -0.333333
vn -0.471404 0.816497 -0.333333
vn -0.471404 0.816497 -0.333333
s off
g pSolid26 group1
usemtl initialShadingGroup
f 3/4/1 2/2/2 1/5/3
f 3/1/4 4/2/5 2/4/6
f 4/4/7 3/5/8 1/6/9
f 2/5/10 4/2/11 1/3/12
