# This file uses centimeters as units for non-parametric coordinates.

mtllib mesh_19.mtl
g default
v 0.000000 -0.000001 10.358061
v -7.324253 0.000002 10.358061
v -0.000001 0.000001 20.716121
v -3.662126 6.342989 10.358061
v -10.986384 6.342991 20.716121
vt 0.250000 0.375000
vt 0.500000 0.000000
vt 0.750000 0.375000
vt 0.500000 0.750000
vt 1.000000 0.000000
vt 0.250000 0.375000
vt 0.500000 0.000000
vt 0.750000 0.375000
vt 0.000000 0.000000
vt 1.000000 0.000000
vt 0.250000 0.375000
vt 0.750000 0.375000
vt 0.750000 0.375000
vt 0.500000 0.000000
vt 0.500000 0.000000
vt 0.250000 0.375000
vt 0.750000 0.375000
vt 0.500000 0.000000
vn 0.000000 -1.000000 -0.000000
vn 0.000000 -1.000000 -0.000000
vn 0.000000 -1.000000 -0.000000
vn 0.866026 0.500000 0.000000
vn 0.866025 0.500000 0.000000
vn 0.866025 0.500000 0.000000
vn 0.000000 0.000000 -1.000000
vn 0.000000 0.000000 -1.000000
vn 0.000000 0.000000 -1.000000
vn -0.471405 -0.816497 0.333333
vn -0.471405 -0.816497 0.333333
vn -0.471405 -0.816497 0.333333
vn 0.471405 0.816497 0.333333
vn 0.471405 0.816497 0.333333
vn 0.471405 0.816497 0.333333
vn -0.738549 0.426402 -0.522233
vn -0.738549 0.426402 -0.522233
vn -0.738549 0.426402 -0.522233
s off
g mesh_9_polySurface1 group2
usemtl initialShadingGroup
f 3/1/1 2/2/2 1/3/3
f 4/11/4 3/12/5 1/4/6
f 2/13/7 4/14/8 1/5/9
f 3/6/10 5/7/11 2/8/12
f 3/9/13 4/15/14 5/16/15
f 5/17/16 4/18/17 2/10/18
