# Rhino

v -19.739917755126953 -67.474990844726563 -9.129150390625
v -15.85739803314209 -62.307899475097656 -9.129150390625
v -11.193188667297363 -57.66400146484375 -9.129150390625
v -6.1186285018920898 -53.427967071533203 -9.129150390625
v -0.84909713268280029 -49.66107177734375 -9.129150390625
v 4.7055902481079102 -45.927772521972656 -9.129150390625
v 9.9340572357177734 -41.967861175537109 -9.129150390625
v 14.666234970092773 -37.754676818847656 -9.129150390625
v 18.871166229248047 -32.765907287597656 -9.129150390625
v 22.757299423217773 -27.52088737487793 -9.129150390625
v 26.257593154907227 -22.01087760925293 -9.129150390625
v 29.264429092407227 -16.166347503662109 -9.129150390625
v 31.1322021484375 -9.9276266098022461 -9.129150390625
v 31.521459579467773 -3.4484758377075195 -9.129150390625
v 30.598413467407227 3.0760359764099121 -9.129150390625
v 28.747827529907227 9.3064069747924805 -9.129150390625
v 29.823949813842773 15.585850715637207 -9.129150390625
v 29.40934944152832 22.072324752807617 -9.129150390625
v 24.478296279907227 26.066709518432617 -9.129150390625
v 20.876928329467773 31.392002105712891 -9.129150390625
v 19.188207626342773 37.62725830078125 -9.129150390625
v 17.1456298828125 43.998546600341797 -9.129150390625
v 14.809301376342773 50.178817749023437 -9.129150390625
v 12.682104110717773 56.292491912841797 -9.129150390625
v 10.7821044921875 62.635848999023438 -9.129150390625
v 8.8641357421875 68.469497680664063 -9.129150390625
v 6.3905024528503418 74.583511352539063 -9.129150390625
v 1.2715572118759155 75.783409118652344 -9.129150390625
v -4.0513920783996582 71.844497680664062 -9.129150390625
v -9.5004158020019531 67.713005065917969 -9.129150390625
v -14.470386505126953 63.960948944091797 -9.129150390625
v -19.95124626159668 60.49884033203125 -9.129150390625
v -25.6734619140625 57.123546600341797 -9.129150390625
v -31.095922470092773 53.29058837890625 -9.129150390625
v -35.954517364501953 49.280479431152344 -9.129150390625
v -40.7642822265625 44.792491912841797 -9.129150390625
v -45.874050140380859 40.742343902587891 -9.129150390625
v -51.425025939941406 37.41876220703125 -9.129150390625
v -57.327808380126953 34.288242340087891 -9.129150390625
v -62.792213439941406 30.788389205932617 -9.129150390625
v -68.159591674804687 27.163633346557617 -9.129150390625
v -74.132888793945313 24.652793884277344 -9.129150390625
v -75.187088012695313 18.690635681152344 -9.129150390625
v -72.975753784179687 12.206846237182617 -9.129150390625
v -70.0045166015625 6.4551863670349121 -9.129150390625
v -66.754562377929688 1.1898053884506226 -9.129150390625
v -64.735328674316406 -5.2843155860900879 -9.129150390625
v -62.500560760498047 -11.527186393737793 -9.129150390625
v -60.927661895751953 -17.979236602783203 -9.129150390625
v -58.924343109130859 -23.67274284362793 -9.129150390625
v -53.778053283691406 -27.72083854675293 -9.129150390625
v -51.277759552001953 -33.740955352783203 -9.129150390625
v -49.3367919921875 -40.067276000976563 -9.129150390625
v -46.648021697998047 -45.935684204101563 -9.129150390625
v -45.428493499755859 -52.344326019287109 -9.129150390625
v -41.402126312255859 -57.295497894287109 -9.129150390625
v -38.877418518066406 -63.067420959472656 -9.129150390625
v -35.099147796630859 -68.278068542480469 -9.129150390625
v -30.8558349609375 -72.778800964355469 -9.129150390625
v -26.572925567626953 -78.195396423339844 -9.129150390625
v -23.198461532592773 -73.127433776855469 -9.129150390625
v -19.739917755126953 -67.474990844726563 -9.129150390625
v -19.739917755126953 -67.474990844726563 10.870849609375
v -15.85739803314209 -62.307899475097656 10.870849609375
v -11.193188667297363 -57.66400146484375 10.870849609375
v -6.1186285018920898 -53.427967071533203 10.870849609375
v -0.84909713268280029 -49.66107177734375 10.870849609375
v 4.7055902481079102 -45.927772521972656 10.870849609375
v 9.9340572357177734 -41.967861175537109 10.870849609375
v 14.666234970092773 -37.754676818847656 10.870849609375
v 18.871166229248047 -32.765907287597656 10.870849609375
v 22.757299423217773 -27.52088737487793 10.870849609375
v 26.257593154907227 -22.01087760925293 10.870849609375
v 29.264429092407227 -16.166347503662109 10.870849609375
v 31.1322021484375 -9.9276266098022461 10.870849609375
v 31.521459579467773 -3.4484758377075195 10.870849609375
v 30.598413467407227 3.0760359764099121 10.870849609375
v 28.747827529907227 9.3064069747924805 10.870849609375
v 29.823949813842773 15.585850715637207 10.870849609375
v 29.40934944152832 22.072324752807617 10.870849609375
v 24.478296279907227 26.066709518432617 10.870849609375
v 20.876928329467773 31.392002105712891 10.870849609375
v 19.188207626342773 37.62725830078125 10.870849609375
v 17.1456298828125 43.998546600341797 10.870849609375
v 14.809301376342773 50.178817749023437 10.870849609375
v 12.682104110717773 56.292491912841797 10.870849609375
v 10.7821044921875 62.635848999023438 10.870849609375
v 8.8641357421875 68.469497680664063 10.870849609375
v 6.3905024528503418 74.583511352539063 10.870849609375
v 1.2715572118759155 75.783409118652344 10.870849609375
v -4.0513920783996582 71.844497680664062 10.870849609375
v -9.5004158020019531 67.713005065917969 10.870849609375
v -14.470386505126953 63.960948944091797 10.870849609375
v -19.95124626159668 60.49884033203125 10.870849609375
v -25.6734619140625 57.123546600341797 10.870849609375
v -31.095922470092773 53.29058837890625 10.870849609375
v -35.954517364501953 49.280479431152344 10.870849609375
v -40.7642822265625 44.792491912841797 10.870849609375
v -45.874050140380859 40.742343902587891 10.870849609375
v -51.425025939941406 37.41876220703125 10.870849609375
v -57.327808380126953 34.288242340087891 10.870849609375
v -62.792213439941406 30.788389205932617 10.870849609375
v -68.159591674804687 27.163633346557617 10.870849609375
v -74.132888793945313 24.652793884277344 10.870849609375
v -75.187088012695313 18.690635681152344 10.870849609375
v -72.975753784179687 12.206846237182617 10.870849609375
v -70.0045166015625 6.4551863670349121 10.870849609375
v -66.754562377929688 1.1898053884506226 10.870849609375
v -64.735328674316406 -5.2843155860900879 10.870849609375
v -62.500560760498047 -11.527186393737793 10.870849609375
v -60.927661895751953 -17.979236602783203 10.870849609375
v -58.924343109130859 -23.67274284362793 10.870849609375
v -53.778053283691406 -27.72083854675293 10.870849609375
v -51.277759552001953 -33.740955352783203 10.870849609375
v -49.3367919921875 -40.067276000976563 10.870849609375
v -46.648021697998047 -45.935684204101563 10.870849609375
v -45.428493499755859 -52.344326019287109 10.870849609375
v -41.402126312255859 -57.295497894287109 10.870849609375
v -38.877418518066406 -63.067420959472656 10.870849609375
v -35.099147796630859 -68.278068542480469 10.870849609375
v -30.8558349609375 -72.778800964355469 10.870849609375
v -26.572925567626953 -78.195396423339844 10.870849609375
v -23.198461532592773 -73.127433776855469 10.870849609375
v -19.739917755126953 -67.474990844726563 10.870849609375
vt 0 0
vt 0 0.012763063423335552
vt 0 0.025143750011920929
vt 0 0.036215756088495255
vt 0 0.048103682696819305
vt 0 0.06120000034570694
vt 0 0.07346498966217041
vt 0 0.088359817862510681
vt 0 0.10543332248926163
vt 0 0.11999999731779099
vt 0 0.13805718719959259
vt 0 0.15485513210296631
vt 0 0.17204904556274414
vt 0 0.18991072475910187
vt 0 0.20740237832069397
vt 0 0.23068003356456757
vt 0 0.25676420331001282
vt 0 0.27621543407440186
vt 0 0.29337114095687866
vt 0 0.30718135833740234
vt 0 0.31745103001594543
vt 0 0.32676893472671509
vt 0 0.33570402860641479
vt 0 0.34504443407058716
vt 0 0.35569211840629578
vt 0 0.36650511622428894
vt 0 0.38119998574256897
vt 0 0.40785393118858337
vt 0 0.42359465360641479
vt 0 0.43999999761581421
vt 0 0.45359474420547485
vt 0 0.46772587299346924
vt 0 0.48120000958442688
vt 0 0.4929385781288147
vt 0 0.50620001554489136
vt 0 0.52417540550231934
vt 0 0.54000002145767212
vt 0 0.55545932054519653
vt 0 0.56959176063537598
vt 0 0.58401679992675781
vt 0 0.60244745016098022
vt 0 0.62247264385223389
vt 0 0.63999998569488525
vt 0 0.65166354179382324
vt 0 0.66321516036987305
vt 0 0.68000000715255737
vt 0 0.6981549859046936
vt 0 0.71409046649932861
vt 0 0.73223358392715454
vt 0 0.75999999046325684
vt 0 0.77900528907775879
vt 0 0.79319018125534058
vt 0 0.8072851300239563
vt 0 0.82807093858718872
vt 0 0.85286545753479004
vt 0 0.87354642152786255
vt 0 0.89539879560470581
vt 0 0.92000001668930054
vt 0 0.94120001792907715
vt 0 0.96619999408721924
vt 0 0.98862200975418091
vt 0 1
vt 1 0
vt 1 0.012763063423335552
vt 1 0.025143750011920929
vt 1 0.036215756088495255
vt 1 0.048103682696819305
vt 1 0.06120000034570694
vt 1 0.07346498966217041
vt 1 0.088359817862510681
vt 1 0.10543332248926163
vt 1 0.11999999731779099
vt 1 0.13805718719959259
vt 1 0.15485513210296631
vt 1 0.17204904556274414
vt 1 0.18991072475910187
vt 1 0.20740237832069397
vt 1 0.23068003356456757
vt 1 0.25676420331001282
vt 1 0.27621543407440186
vt 1 0.29337114095687866
vt 1 0.30718135833740234
vt 1 0.31745103001594543
vt 1 0.32676893472671509
vt 1 0.33570402860641479
vt 1 0.34504443407058716
vt 1 0.35569211840629578
vt 1 0.36650511622428894
vt 1 0.38119998574256897
vt 1 0.40785393118858337
vt 1 0.42359465360641479
vt 1 0.43999999761581421
vt 1 0.45359474420547485
vt 1 0.46772587299346924
vt 1 0.48120000958442688
vt 1 0.4929385781288147
vt 1 0.50620001554489136
vt 1 0.52417540550231934
vt 1 0.54000002145767212
vt 1 0.55545932054519653
vt 1 0.56959176063537598
vt 1 0.58401679992675781
vt 1 0.60244745016098022
vt 1 0.62247264385223389
vt 1 0.63999998569488525
vt 1 0.65166354179382324
vt 1 0.66321516036987305
vt 1 0.68000000715255737
vt 1 0.6981549859046936
vt 1 0.71409046649932861
vt 1 0.73223358392715454
vt 1 0.75999999046325684
vt 1 0.77900528907775879
vt 1 0.79319018125534058
vt 1 0.8072851300239563
vt 1 0.82807093858718872
vt 1 0.85286545753479004
vt 1 0.87354642152786255
vt 1 0.89539879560470581
vt 1 0.92000001668930054
vt 1 0.94120001792907715
vt 1 0.96619999408721924
vt 1 0.98862200975418091
vt 1 1
vn -0.83617681264877319 0.54846000671386719 0
vn -0.75139158964157104 0.65985655784606934 0
vn -0.66830235719680786 0.74388974905014038 0
vn -0.61298644542694092 0.79009342193603516 0
vn -0.55463117361068726 0.83209633827209473 0
vn -0.57801914215087891 0.81602323055267334 0
vn -0.62842166423797607 0.77787286043167114 0
vn -0.71648526191711426 0.69760227203369141 0
vn -0.79010164737701416 0.61297589540481567 0
vn -0.81865745782852173 0.57428210973739624 0
vn -0.86813825368881226 0.49632245302200317 0
vn -0.9169192910194397 0.39907264709472656 0
vn -0.9868280291557312 0.16177286207675934 0
vn -0.99934303760528564 -0.036242835223674774 0
vn -0.97231173515319824 -0.23368757963180542 0
vn -0.97644579410552979 -0.21576292812824249 0
vn -0.9778066873550415 0.20950917899608612 0
vn -0.88322043418884277 -0.46895807981491089 0
vn -0.59116184711456299 -0.8065529465675354 0
vn -0.94918882846832275 -0.31470710039138794 0
vn -0.96603101491928101 -0.25842618942260742 0
vn -0.93946844339370728 -0.34263548254966736 0
vn -0.9356885552406311 -0.35282707214355469 0
vn -0.95383065938949585 -0.30034485459327698 0
vn -0.95805561542510986 -0.28658238053321838 0
vn -0.93963497877120972 -0.34217849373817444 0
vn -0.90924280881881714 -0.41626620292663574 0
vn 0.54555773735046387 -0.8380732536315918 0
vn 0.60434490442276001 -0.79672282934188843 0
vn 0.60915517807006836 -0.79305106401443481 0
vn 0.5819251537322998 -0.81324231624603271 0
vn 0.49282124638557434 -0.87013059854507446 0
vn 0.54380053281784058 -0.8392145037651062 0
vn 0.60562384128570557 -0.79575109481811523 0
vn 0.6725279688835144 -0.74007171392440796 0
vn 0.66282802820205688 -0.74877166748046875 0
vn 0.5685807466506958 -0.8226274847984314 0
vn 0.47369101643562317 -0.88069111108779907 0
vn 0.48191401362419128 -0.87621849775314331 0
vn 0.61666363477706909 -0.78722673654556274 0
vn 0.35819533467292786 -0.93364667892456055 0
vn 0.70466470718383789 -0.70954042673110962 0
vn 0.97980403900146484 0.19996000826358795 0
vn 0.91594040393829346 0.40131434798240662 0
vn 0.85201632976531982 0.52351522445678711 0
vn 0.90882956981658936 0.41716763377189636 0
vn 0.95807379484176636 0.28652152419090271 0
vn 0.94116294384002686 0.33795303106307983 0
vn 0.9910743236541748 0.13331028819084167 0
vn 0.60000002384185791 0.80000001192092896 0
vn 0.79718154668807983 0.60373961925506592 0
vn 0.96420884132385254 0.26514402031898499 0
vn 0.93437331914901733 0.35629555583000183 0
vn 0.90463250875473022 0.4261925220489502 0
vn 0.97662860155105591 0.21493396162986755 0
vn 0.62219983339309692 0.78285843133926392 0
vn 0.98275870084762573 0.18489269912242889 0
vn 0.65850454568862915 0.75257670879364014 0
vn 0.77435970306396484 0.63274562358856201 0
vn 0.54827308654785156 0.8362993597984314 0
vn -0.86397629976272583 0.50353246927261353 0
vn -0.83617681264877319 0.54846000671386719 0
vn -0.83617681264877319 0.54846000671386719 0
vn -0.75139158964157104 0.65985655784606934 0
vn -0.66830235719680786 0.74388974905014038 0
vn -0.61298644542694092 0.79009342193603516 0
vn -0.55463117361068726 0.83209633827209473 0
vn -0.57801914215087891 0.81602323055267334 0
vn -0.62842166423797607 0.77787286043167114 0
vn -0.71648526191711426 0.69760227203369141 0
vn -0.79010164737701416 0.61297589540481567 0
vn -0.81865745782852173 0.57428210973739624 0
vn -0.86813825368881226 0.49632245302200317 0
vn -0.9169192910194397 0.39907264709472656 0
vn -0.9868280291557312 0.16177286207675934 0
vn -0.99934303760528564 -0.036242835223674774 0
vn -0.97231173515319824 -0.23368757963180542 0
vn -0.97644579410552979 -0.21576292812824249 0
vn -0.9778066873550415 0.20950917899608612 0
vn -0.88322043418884277 -0.46895807981491089 0
vn -0.59116184711456299 -0.8065529465675354 0
vn -0.94918882846832275 -0.31470710039138794 0
vn -0.96603101491928101 -0.25842618942260742 0
vn -0.93946844339370728 -0.34263548254966736 0
vn -0.9356885552406311 -0.35282707214355469 0
vn -0.95383065938949585 -0.30034485459327698 0
vn -0.95805561542510986 -0.28658238053321838 0
vn -0.93963497877120972 -0.34217849373817444 0
vn -0.90924280881881714 -0.41626620292663574 0
vn 0.54555773735046387 -0.8380732536315918 0
vn 0.60434490442276001 -0.79672282934188843 0
vn 0.60915517807006836 -0.79305106401443481 0
vn 0.5819251537322998 -0.81324231624603271 0
vn 0.49282124638557434 -0.87013059854507446 0
vn 0.54380053281784058 -0.8392145037651062 0
vn 0.60562384128570557 -0.79575109481811523 0
vn 0.6725279688835144 -0.74007171392440796 0
vn 0.66282802820205688 -0.74877166748046875 0
vn 0.5685807466506958 -0.8226274847984314 0
vn 0.47369101643562317 -0.88069111108779907 0
vn 0.48191401362419128 -0.87621849775314331 0
vn 0.61666363477706909 -0.78722673654556274 0
vn 0.35819533467292786 -0.93364667892456055 0
vn 0.70466470718383789 -0.70954042673110962 0
vn 0.97980403900146484 0.19996000826358795 0
vn 0.91594040393829346 0.40131434798240662 0
vn 0.85201632976531982 0.52351522445678711 0
vn 0.90882956981658936 0.41716763377189636 0
vn 0.95807379484176636 0.28652152419090271 0
vn 0.94116294384002686 0.33795303106307983 0
vn 0.9910743236541748 0.13331028819084167 0
vn 0.60000002384185791 0.80000001192092896 0
vn 0.79718154668807983 0.60373961925506592 0
vn 0.96420884132385254 0.26514402031898499 0
vn 0.93437331914901733 0.35629555583000183 0
vn 0.90463250875473022 0.4261925220489502 0
vn 0.97662860155105591 0.21493396162986755 0
vn 0.62219983339309692 0.78285843133926392 0
vn 0.98275870084762573 0.18489269912242889 0
vn 0.65850454568862915 0.75257670879364014 0
vn 0.77435970306396484 0.63274562358856201 0
vn 0.54827308654785156 0.8362993597984314 0
vn -0.86397629976272583 0.50353246927261353 0
vn -0.83617681264877319 0.54846000671386719 0
f 64/64/64 2/2/2 1/1/1 63/63/63
f 65/65/65 3/3/3 2/2/2 64/64/64
f 66/66/66 4/4/4 3/3/3 65/65/65
f 67/67/67 5/5/5 4/4/4 66/66/66
f 68/68/68 6/6/6 5/5/5 67/67/67
f 69/69/69 7/7/7 6/6/6 68/68/68
f 70/70/70 8/8/8 7/7/7 69/69/69
f 71/71/71 9/9/9 8/8/8 70/70/70
f 72/72/72 10/10/10 9/9/9 71/71/71
f 73/73/73 11/11/11 10/10/10 72/72/72
f 74/74/74 12/12/12 11/11/11 73/73/73
f 75/75/75 13/13/13 12/12/12 74/74/74
f 76/76/76 14/14/14 13/13/13 75/75/75
f 77/77/77 15/15/15 14/14/14 76/76/76
f 78/78/78 16/16/16 15/15/15 77/77/77
f 79/79/79 17/17/17 16/16/16 78/78/78
f 80/80/80 18/18/18 17/17/17 79/79/79
f 81/81/81 19/19/19 18/18/18 80/80/80
f 82/82/82 20/20/20 19/19/19 81/81/81
f 83/83/83 21/21/21 20/20/20 82/82/82
f 84/84/84 22/22/22 21/21/21 83/83/83
f 85/85/85 23/23/23 22/22/22 84/84/84
f 86/86/86 24/24/24 23/23/23 85/85/85
f 87/87/87 25/25/25 24/24/24 86/86/86
f 88/88/88 26/26/26 25/25/25 87/87/87
f 89/89/89 27/27/27 26/26/26 88/88/88
f 90/90/90 28/28/28 27/27/27 89/89/89
f 91/91/91 29/29/29 28/28/28 90/90/90
f 92/92/92 30/30/30 29/29/29 91/91/91
f 93/93/93 31/31/31 30/30/30 92/92/92
f 94/94/94 32/32/32 31/31/31 93/93/93
f 95/95/95 33/33/33 32/32/32 94/94/94
f 96/96/96 34/34/34 33/33/33 95/95/95
f 97/97/97 35/35/35 34/34/34 96/96/96
f 98/98/98 36/36/36 35/35/35 97/97/97
f 99/99/99 37/37/37 36/36/36 98/98/98
f 100/100/100 38/38/38 37/37/37 99/99/99
f 101/101/101 39/39/39 38/38/38 100/100/100
f 102/102/102 40/40/40 39/39/39 101/101/101
f 103/103/103 41/41/41 40/40/40 102/102/102
f 104/104/104 42/42/42 41/41/41 103/103/103
f 105/105/105 43/43/43 42/42/42 104/104/104
f 106/106/106 44/44/44 43/43/43 105/105/105
f 107/107/107 45/45/45 44/44/44 106/106/106
f 108/108/108 46/46/46 45/45/45 107/107/107
f 109/109/109 47/47/47 46/46/46 108/108/108
f 110/110/110 48/48/48 47/47/47 109/109/109
f 111/111/111 49/49/49 48/48/48 110/110/110
f 112/112/112 50/50/50 49/49/49 111/111/111
f 113/113/113 51/51/51 50/50/50 112/112/112
f 114/114/114 52/52/52 51/51/51 113/113/113
f 115/115/115 53/53/53 52/52/52 114/114/114
f 116/116/116 54/54/54 53/53/53 115/115/115
f 117/117/117 55/55/55 54/54/54 116/116/116
f 118/118/118 56/56/56 55/55/55 117/117/117
f 119/119/119 57/57/57 56/56/56 118/118/118
f 120/120/120 58/58/58 57/57/57 119/119/119
f 121/121/121 59/59/59 58/58/58 120/120/120
f 122/122/122 60/60/60 59/59/59 121/121/121
f 123/123/123 61/61/61 60/60/60 122/122/122
f 124/124/124 62/62/62 61/61/61 123/123/123
